<mxGraphModel dx="1215" dy="748" grid="0" gridSize="10" guides="1" tooltips="1" connect="1" arrows="1" fold="1" page="0" pageScale="1" pageWidth="1100" pageHeight="850" background="#ffffff"><root><mxCell id="0"/><mxCell id="1" parent="0"/><mxCell id="37" value="" style="rounded=0;whiteSpace=wrap;html=1;fillColor=#FFCC99;gradientColor=none;dashed=1;dashPattern=1 1;fontStyle=1" parent="1" vertex="1"><mxGeometry x="540" y="390" width="150" height="204" as="geometry"/></mxCell><mxCell id="34" value="" style="rounded=0;whiteSpace=wrap;html=1;fillColor=#99FF99;gradientColor=none;dashed=1;dashPattern=1 1;fontStyle=1" parent="1" vertex="1"><mxGeometry x="370" y="390" width="160" height="204" as="geometry"/></mxCell><mxCell id="32" value="" style="rounded=0;whiteSpace=wrap;html=1;fillColor=#FF66FF;gradientColor=none;dashed=1;dashPattern=1 1;fontStyle=1" parent="1" vertex="1"><mxGeometry x="120" y="390" width="240" height="204" as="geometry"/></mxCell><mxCell id="17" style="edgeStyle=orthogonalEdgeStyle;rounded=0;html=1;entryX=0;entryY=0.5;jettySize=auto;orthogonalLoop=1;fontStyle=1;targetPerimeterSpacing=1;strokeWidth=2;" parent="1" source="3" target="7" edge="1"><mxGeometry relative="1" as="geometry"/></mxCell><mxCell id="3" value="Person" style="rounded=0;whiteSpace=wrap;html=1;fillColor=#7EA6E0;gradientColor=#ffffff;fontStyle=1" parent="1" vertex="1"><mxGeometry x="40" y="300" width="120" height="60" as="geometry"/></mxCell><mxCell id="24" style="edgeStyle=orthogonalEdgeStyle;rounded=0;html=1;entryX=0;entryY=0.5;dashed=1;jettySize=auto;orthogonalLoop=1;fontStyle=1" parent="1" source="6" target="11" edge="1"><mxGeometry relative="1" as="geometry"/></mxCell><mxCell id="6" value="Automatic Speech Recognition / Speech-to-Text" style="rounded=0;whiteSpace=wrap;html=1;gradientColor=#ffffff;fillColor=#7EA6E0;fontStyle=1" parent="1" vertex="1"><mxGeometry x="140" y="410" width="200" height="60" as="geometry"/></mxCell><mxCell id="21" style="edgeStyle=orthogonalEdgeStyle;rounded=0;html=1;entryX=0.5;entryY=0;dashed=1;jettySize=auto;orthogonalLoop=1;fontStyle=1" parent="1" source="7" target="6" edge="1"><mxGeometry relative="1" as="geometry"><Array as="points"><mxPoint x="310" y="380"/><mxPoint x="240" y="380"/></Array></mxGeometry></mxCell><mxCell id="27" style="edgeStyle=orthogonalEdgeStyle;rounded=0;html=1;entryX=0.5;entryY=0;jettySize=auto;orthogonalLoop=1;fontStyle=1;targetPerimeterSpacing=1;strokeWidth=2;" parent="1" source="7" target="12" edge="1"><mxGeometry relative="1" as="geometry"/></mxCell><mxCell id="7" value="Spoken Language Understanding" style="rounded=0;whiteSpace=wrap;html=1;fillColor=#7EA6E0;gradientColor=#ffffff;fontStyle=1" parent="1" vertex="1"><mxGeometry x="280" y="300" width="120" height="60" as="geometry"/></mxCell><mxCell id="25" style="edgeStyle=orthogonalEdgeStyle;rounded=0;html=1;entryX=0.75;entryY=1;dashed=1;jettySize=auto;orthogonalLoop=1;fontStyle=1" parent="1" source="11" target="7" edge="1"><mxGeometry relative="1" as="geometry"><Array as="points"><mxPoint x="450" y="380"/><mxPoint x="370" y="380"/></Array></mxGeometry></mxCell><mxCell id="11" value="Natural Language Understanding" style="rounded=0;whiteSpace=wrap;html=1;gradientColor=#ffffff;fillColor=#7EA6E0;fontStyle=1" parent="1" vertex="1"><mxGeometry x="390" y="410" width="120" height="60" as="geometry"/></mxCell><mxCell id="28" style="edgeStyle=orthogonalEdgeStyle;rounded=0;html=1;entryX=0.5;entryY=0;jettySize=auto;orthogonalLoop=1;fontStyle=1;targetPerimeterSpacing=1;strokeWidth=2;" parent="1" source="12" target="13" edge="1"><mxGeometry relative="1" as="geometry"/></mxCell><mxCell id="12" value="Dialogue State Tracking" style="rounded=0;whiteSpace=wrap;html=1;gradientColor=#ffffff;fillColor=#7EA6E0;fontStyle=1" parent="1" vertex="1"><mxGeometry x="555" y="410" width="120" height="60" as="geometry"/></mxCell><mxCell id="39" style="edgeStyle=orthogonalEdgeStyle;rounded=0;html=1;entryX=1;entryY=0.5;jettySize=auto;orthogonalLoop=1;targetPerimeterSpacing=1;strokeWidth=2;" parent="1" source="13" target="14" edge="1"><mxGeometry relative="1" as="geometry"/></mxCell><mxCell id="13" value="Dialogue Policy Learning" style="rounded=0;whiteSpace=wrap;html=1;gradientColor=#ffffff;fillColor=#7EA6E0;fontStyle=1" parent="1" vertex="1"><mxGeometry x="555" y="505" width="120" height="60" as="geometry"/></mxCell><mxCell id="30" style="edgeStyle=orthogonalEdgeStyle;rounded=0;html=1;entryX=1;entryY=0.5;jettySize=auto;orthogonalLoop=1;fontStyle=1;targetPerimeterSpacing=1;strokeWidth=2;" parent="1" source="14" target="20" edge="1"><mxGeometry relative="1" as="geometry"/></mxCell><mxCell id="14" value="Natural Language Generation" style="rounded=0;whiteSpace=wrap;html=1;gradientColor=#ffffff;fillColor=#7EA6E0;fontStyle=1" parent="1" vertex="1"><mxGeometry x="390" y="505" width="120" height="60" as="geometry"/></mxCell><mxCell id="31" style="edgeStyle=orthogonalEdgeStyle;rounded=0;html=1;entryX=0.5;entryY=1;jettySize=auto;orthogonalLoop=1;fontStyle=1;targetPerimeterSpacing=1;strokeWidth=2;" parent="1" source="20" target="3" edge="1"><mxGeometry relative="1" as="geometry"/></mxCell><mxCell id="20" value="Text-to-Speech" style="rounded=0;whiteSpace=wrap;html=1;gradientColor=#ffffff;fillColor=#7EA6E0;fontStyle=1" parent="1" vertex="1"><mxGeometry x="180" y="505" width="120" height="60" as="geometry"/></mxCell><mxCell id="33" value="&lt;b&gt;&lt;i&gt;Speech&lt;/i&gt;&lt;/b&gt;" style="text;html=1;resizable=0;points=[];autosize=1;align=left;verticalAlign=top;spacingTop=-4;" parent="1" vertex="1"><mxGeometry x="310" y="575" width="60" height="20" as="geometry"/></mxCell><mxCell id="35" value="&lt;b&gt;&lt;i&gt;NLP&amp;nbsp;&lt;/i&gt;&lt;/b&gt;" style="text;html=1;resizable=0;points=[];autosize=1;align=left;verticalAlign=top;spacingTop=-4;" parent="1" vertex="1"><mxGeometry x="500" y="575" width="40" height="20" as="geometry"/></mxCell><mxCell id="38" value="&lt;span&gt;&lt;b&gt;&lt;i&gt;Dialogue Manager&lt;/i&gt;&lt;/b&gt;&lt;/span&gt;&lt;br&gt;" style="text;html=1;resizable=0;points=[];autosize=1;align=left;verticalAlign=top;spacingTop=-4;" parent="1" vertex="1"><mxGeometry x="580" y="575" width="120" height="20" as="geometry"/></mxCell><mxCell id="40" value="Response" style="text;html=1;resizable=0;points=[];autosize=1;align=left;verticalAlign=top;spacingTop=-4;fontStyle=1" parent="1" vertex="1"><mxGeometry x="40" y="449" width="64" height="14" as="geometry"/></mxCell><mxCell id="44" value="&lt;b&gt;&lt;font style=&quot;font-size: 18px&quot;&gt;Task-Oriented Dialogue System&lt;/font&gt;&lt;/b&gt;" style="text;html=1;resizable=0;points=[];autosize=1;align=left;verticalAlign=top;spacingTop=-4;fontStyle=0" parent="1" vertex="1"><mxGeometry x="240" y="231" width="280" height="16" as="geometry"/></mxCell><mxCell id="47" value="" style="edgeStyle=orthogonalEdgeStyle;rounded=0;html=1;jettySize=auto;orthogonalLoop=1;" parent="1" source="45" target="46" edge="1"><mxGeometry relative="1" as="geometry"/></mxCell><mxCell id="45" value="Initialization" style="rounded=0;whiteSpace=wrap;html=1;fillColor=#7EA6E0;gradientColor=#ffffff;fontStyle=1" parent="1" vertex="1"><mxGeometry x="60" y="959" width="120" height="60" as="geometry"/></mxCell><mxCell id="49" value="" style="edgeStyle=orthogonalEdgeStyle;rounded=0;html=1;jettySize=auto;orthogonalLoop=1;" parent="1" source="46" target="48" edge="1"><mxGeometry relative="1" as="geometry"/></mxCell><mxCell id="46" value="Tokenization" style="rounded=0;whiteSpace=wrap;html=1;fillColor=#7EA6E0;gradientColor=#ffffff;fontStyle=1" parent="1" vertex="1"><mxGeometry x="260" y="959" width="120" height="60" as="geometry"/></mxCell><mxCell id="51" value="" style="edgeStyle=orthogonalEdgeStyle;rounded=0;html=1;jettySize=auto;orthogonalLoop=1;" parent="1" source="48" target="50" edge="1"><mxGeometry relative="1" as="geometry"/></mxCell><mxCell id="48" value="Feature Extraction" style="rounded=0;whiteSpace=wrap;html=1;fillColor=#7EA6E0;gradientColor=#ffffff;fontStyle=1" parent="1" vertex="1"><mxGeometry x="460" y="959" width="120" height="60" as="geometry"/></mxCell><mxCell id="53" value="" style="edgeStyle=orthogonalEdgeStyle;rounded=0;html=1;jettySize=auto;orthogonalLoop=1;" parent="1" source="50" target="52" edge="1"><mxGeometry relative="1" as="geometry"/></mxCell><mxCell id="50" value="Name Entity Recognition" style="rounded=0;whiteSpace=wrap;html=1;fillColor=#7EA6E0;gradientColor=#ffffff;fontStyle=1" parent="1" vertex="1"><mxGeometry x="460" y="1099" width="120" height="60" as="geometry"/></mxCell><mxCell id="55" value="" style="edgeStyle=orthogonalEdgeStyle;rounded=0;html=1;jettySize=auto;orthogonalLoop=1;" parent="1" source="52" target="54" edge="1"><mxGeometry relative="1" as="geometry"/></mxCell><mxCell id="52" value="Intent Recognition" style="rounded=0;whiteSpace=wrap;html=1;fillColor=#7EA6E0;gradientColor=#ffffff;fontStyle=1" parent="1" vertex="1"><mxGeometry x="260" y="1099" width="120" height="60" as="geometry"/></mxCell><mxCell id="54" value="Structured Output" style="rounded=0;whiteSpace=wrap;html=1;fillColor=#7EA6E0;gradientColor=#ffffff;fontStyle=1" parent="1" vertex="1"><mxGeometry x="60" y="1099" width="120" height="60" as="geometry"/></mxCell><mxCell id="56" value="&lt;span style=&quot;font-size: 18px&quot;&gt;&lt;b&gt;RASA NLU Pipeline Workflow&lt;/b&gt;&lt;/span&gt;" style="text;html=1;resizable=0;points=[];autosize=1;align=left;verticalAlign=top;spacingTop=-4;fontStyle=0" parent="1" vertex="1"><mxGeometry x="198" y="894" width="262" height="16" as="geometry"/></mxCell><mxCell id="75" value="" style="edgeStyle=orthogonalEdgeStyle;rounded=0;html=1;jettySize=auto;orthogonalLoop=1;" edge="1" parent="1" source="61" target="74"><mxGeometry relative="1" as="geometry"/></mxCell><mxCell id="80" value="" style="edgeStyle=orthogonalEdgeStyle;rounded=0;html=1;jettySize=auto;orthogonalLoop=1;" edge="1" parent="1" source="61" target="79"><mxGeometry relative="1" as="geometry"/></mxCell><mxCell id="88" value="" style="edgeStyle=orthogonalEdgeStyle;rounded=0;html=1;jettySize=auto;orthogonalLoop=1;" edge="1" parent="1" source="61" target="87"><mxGeometry relative="1" as="geometry"/></mxCell><mxCell id="61" value="&lt;pre&gt;机器回复问候&lt;/pre&gt;" style="rounded=0;whiteSpace=wrap;html=1;strokeColor=#007FFF;fillColor=#007FFF;fontStyle=1;fontSize=12;" vertex="1" parent="1"><mxGeometry x="276" y="1335" width="97" height="38" as="geometry"/></mxCell><mxCell id="90" value="" style="edgeStyle=orthogonalEdgeStyle;rounded=0;html=1;jettySize=auto;orthogonalLoop=1;" edge="1" parent="1" source="87" target="89"><mxGeometry relative="1" as="geometry"/></mxCell><mxCell id="87" value="&lt;pre&gt;用户不知道如何操作&lt;/pre&gt;" style="rounded=0;whiteSpace=wrap;html=1;strokeColor=#00FF00;fontStyle=1;fillColor=#00FF00;" vertex="1" parent="1"><mxGeometry x="52" y="1404" width="134" height="37" as="geometry"/></mxCell><mxCell id="89" value="&lt;pre&gt;机器回复操作指南&lt;/pre&gt;" style="rounded=0;whiteSpace=wrap;html=1;strokeColor=#007FFF;fillColor=#007FFF;fontStyle=1;fontSize=12;" vertex="1" parent="1"><mxGeometry x="60" y="1482" width="118" height="34" as="geometry"/></mxCell><mxCell id="98" value="" style="edgeStyle=orthogonalEdgeStyle;rounded=0;html=1;jettySize=auto;orthogonalLoop=1;exitX=0.5;exitY=1;" edge="1" parent="1" source="79" target="97"><mxGeometry relative="1" as="geometry"><Array as="points"><mxPoint x="763" y="1470"/><mxPoint x="618" y="1470"/></Array></mxGeometry></mxCell><mxCell id="103" style="edgeStyle=orthogonalEdgeStyle;rounded=0;html=1;jettySize=auto;orthogonalLoop=1;" edge="1" parent="1" source="79" target="99"><mxGeometry relative="1" as="geometry"/></mxCell><mxCell id="104" style="edgeStyle=orthogonalEdgeStyle;rounded=0;html=1;jettySize=auto;orthogonalLoop=1;exitX=0.5;exitY=1;" edge="1" parent="1" source="79" target="101"><mxGeometry relative="1" as="geometry"><Array as="points"><mxPoint x="763" y="1470"/><mxPoint x="931" y="1470"/></Array></mxGeometry></mxCell><mxCell id="79" value="&lt;pre&gt;用户回复挂号意图&lt;/pre&gt;" style="rounded=0;whiteSpace=wrap;html=1;strokeColor=#00FF00;fontStyle=1;fillColor=#00FF00;" vertex="1" parent="1"><mxGeometry x="705" y="1404" width="115" height="38" as="geometry"/></mxCell><mxCell id="147" style="edgeStyle=orthogonalEdgeStyle;rounded=0;html=1;entryX=0.5;entryY=0;jettySize=auto;orthogonalLoop=1;" edge="1" parent="1" source="97" target="140"><mxGeometry relative="1" as="geometry"><Array as="points"><mxPoint x="618" y="1819"/><mxPoint x="538" y="1819"/></Array></mxGeometry></mxCell><mxCell id="97" value="&lt;pre&gt;&lt;span&gt;用户回复包含科室&lt;/span&gt;&lt;/pre&gt;" style="rounded=1;whiteSpace=wrap;html=1;comic=0;glass=0;shadow=0;arcSize=50;dashed=1;strokeColor=#FF0000;strokeWidth=2;" vertex="1" parent="1"><mxGeometry x="560" y="1498" width="115" height="38" as="geometry"/></mxCell><mxCell id="144" style="edgeStyle=orthogonalEdgeStyle;rounded=0;html=1;jettySize=auto;orthogonalLoop=1;" edge="1" parent="1" source="105" target="140"><mxGeometry relative="1" as="geometry"><Array as="points"><mxPoint x="763" y="1819"/><mxPoint x="539" y="1819"/></Array></mxGeometry></mxCell><mxCell id="105" value="&lt;pre&gt;查询疾病所属科室&lt;/pre&gt;" style="rounded=0;whiteSpace=wrap;html=1;strokeColor=#FF0000;fillColor=#FF0000;" vertex="1" parent="1"><mxGeometry x="705" y="1684" width="115" height="38" as="geometry"/></mxCell><mxCell id="134" style="edgeStyle=orthogonalEdgeStyle;rounded=0;html=1;exitX=0.5;exitY=1;entryX=0.5;entryY=0;jettySize=auto;orthogonalLoop=1;" edge="1" parent="1" source="99" target="105"><mxGeometry relative="1" as="geometry"/></mxCell><mxCell id="99" value="&lt;pre&gt;&lt;pre&gt;用户回复包含疾病&lt;/pre&gt;&lt;/pre&gt;" style="rounded=1;whiteSpace=wrap;html=1;arcSize=50;dashed=1;strokeColor=#FF0000;strokeWidth=2;" vertex="1" parent="1"><mxGeometry x="705" y="1498" width="115" height="38" as="geometry"/></mxCell><mxCell id="140" value="&lt;pre&gt;机器返回科室医生信息&lt;/pre&gt;&lt;pre&gt;以及挂号服务&lt;/pre&gt;" style="rounded=0;whiteSpace=wrap;html=1;strokeColor=#007FFF;fillColor=#007FFF;fontStyle=1;fontSize=12;" vertex="1" parent="1"><mxGeometry x="471" y="1859" width="135" height="57" as="geometry"/></mxCell><mxCell id="125" style="edgeStyle=orthogonalEdgeStyle;rounded=0;html=1;exitX=0.5;exitY=1;entryX=0.5;entryY=0;jettySize=auto;orthogonalLoop=1;" edge="1" parent="1" source="101" target="121"><mxGeometry relative="1" as="geometry"/></mxCell><mxCell id="101" value="&lt;pre&gt;用户回复既不包含疾病名称&lt;/pre&gt;&lt;pre&gt;也不包含科室名称&lt;/pre&gt;" style="rounded=1;whiteSpace=wrap;html=1;arcSize=50;dashed=1;strokeColor=#FF0000;strokeWidth=2;" vertex="1" parent="1"><mxGeometry x="849" y="1498" width="164" height="64" as="geometry"/></mxCell><mxCell id="78" style="edgeStyle=orthogonalEdgeStyle;rounded=0;html=1;exitX=0.5;exitY=1;entryX=0.5;entryY=0;jettySize=auto;orthogonalLoop=1;" edge="1" parent="1" source="76" target="61"><mxGeometry relative="1" as="geometry"/></mxCell><mxCell id="76" value="&lt;pre&gt;用户问候&lt;/pre&gt;" style="rounded=0;whiteSpace=wrap;html=1;strokeColor=#00FF00;fontStyle=1;fillColor=#00FF00;" vertex="1" parent="1"><mxGeometry x="276" y="1260" width="97" height="38" as="geometry"/></mxCell><mxCell id="92" value="" style="edgeStyle=orthogonalEdgeStyle;rounded=0;html=1;jettySize=auto;orthogonalLoop=1;" edge="1" parent="1" source="74" target="91"><mxGeometry relative="1" as="geometry"/></mxCell><mxCell id="95" style="edgeStyle=orthogonalEdgeStyle;rounded=0;html=1;entryX=0.5;entryY=0;jettySize=auto;orthogonalLoop=1;" edge="1" parent="1" source="74" target="93"><mxGeometry relative="1" as="geometry"/></mxCell><mxCell id="74" value="&lt;pre&gt;用户回复疾病诊断意图&lt;/pre&gt;" style="rounded=0;whiteSpace=wrap;html=1;strokeColor=#00FF00;fontStyle=1;fillColor=#00FF00;" vertex="1" parent="1"><mxGeometry x="255" y="1404" width="140" height="38" as="geometry"/></mxCell><mxCell id="115" style="edgeStyle=orthogonalEdgeStyle;rounded=0;html=1;exitX=0.5;exitY=1;entryX=0.5;entryY=0;jettySize=auto;orthogonalLoop=1;" edge="1" parent="1" source="91" target="109"><mxGeometry relative="1" as="geometry"/></mxCell><mxCell id="91" value="&lt;pre&gt;回复包含症状&lt;/pre&gt;" style="rounded=1;whiteSpace=wrap;html=1;arcSize=50;shadow=0;comic=0;glass=0;dashed=1;strokeColor=#FF0000;strokeWidth=2;" vertex="1" parent="1"><mxGeometry x="199" y="1497" width="95" height="38" as="geometry"/></mxCell><mxCell id="120" style="edgeStyle=orthogonalEdgeStyle;rounded=0;html=1;exitX=0.5;exitY=1;entryX=0.5;entryY=0;jettySize=auto;orthogonalLoop=1;" edge="1" parent="1" source="109" target="119"><mxGeometry relative="1" as="geometry"/></mxCell><mxCell id="109" value="&lt;pre&gt;调用疾病诊断服务&lt;/pre&gt;" style="rounded=0;whiteSpace=wrap;html=1;arcSize=50;shadow=0;comic=0;glass=0;strokeColor=#FF0000;fillColor=#FF0000;" vertex="1" parent="1"><mxGeometry x="186" y="1563" width="125" height="38" as="geometry"/></mxCell><mxCell id="116" style="edgeStyle=orthogonalEdgeStyle;rounded=0;html=1;exitX=1;exitY=0.5;entryX=1;entryY=0.5;jettySize=auto;orthogonalLoop=1;" edge="1" parent="1" source="111" target="74"><mxGeometry relative="1" as="geometry"/></mxCell><mxCell id="111" value="&lt;pre&gt;机器继续询问症状&lt;/pre&gt;" style="rounded=0;whiteSpace=wrap;html=1;arcSize=50;shadow=0;comic=0;glass=0;strokeColor=#007FFF;fillColor=#007FFF;fontStyle=1;fontSize=12;" vertex="1" parent="1"><mxGeometry x="336" y="1563" width="125" height="38" as="geometry"/></mxCell><mxCell id="114" style="edgeStyle=orthogonalEdgeStyle;rounded=0;html=1;exitX=0.5;exitY=1;entryX=0.5;entryY=0;jettySize=auto;orthogonalLoop=1;" edge="1" parent="1" source="93" target="111"><mxGeometry relative="1" as="geometry"/></mxCell><mxCell id="93" value="&lt;pre&gt;回复不包含症状&lt;/pre&gt;" style="rounded=1;whiteSpace=wrap;html=1;arcSize=50;dashed=1;strokeColor=#FF0000;strokeWidth=2;" vertex="1" parent="1"><mxGeometry x="349" y="1497" width="99" height="38" as="geometry"/></mxCell><mxCell id="143" value="" style="edgeStyle=orthogonalEdgeStyle;rounded=0;html=1;jettySize=auto;orthogonalLoop=1;" edge="1" parent="1" source="119"><mxGeometry relative="1" as="geometry"><mxPoint x="249" y="1698" as="targetPoint"/><Array as="points"><mxPoint x="248" y="1687"/><mxPoint x="249" y="1687"/></Array></mxGeometry></mxCell><mxCell id="119" value="&lt;pre&gt;查询疾病所属科室&lt;/pre&gt;" style="rounded=0;whiteSpace=wrap;html=1;strokeColor=#FF0000;fillColor=#FF0000;" vertex="1" parent="1"><mxGeometry x="191" y="1629" width="115" height="38" as="geometry"/></mxCell><mxCell id="145" style="edgeStyle=orthogonalEdgeStyle;rounded=0;html=1;jettySize=auto;orthogonalLoop=1;" edge="1" parent="1" source="142" target="140"><mxGeometry relative="1" as="geometry"><mxPoint x="422" y="1884" as="targetPoint"/><Array as="points"><mxPoint x="249" y="1818"/><mxPoint x="539" y="1818"/></Array></mxGeometry></mxCell><mxCell id="142" value="&lt;pre&gt;机器询问用户&lt;/pre&gt;&lt;pre&gt;是否需要挂号&lt;/pre&gt;" style="rounded=0;whiteSpace=wrap;html=1;strokeColor=#007FFF;fillColor=#007FFF;fontStyle=1;fontSize=12;" vertex="1" parent="1"><mxGeometry x="191" y="1698" width="116" height="59" as="geometry"/></mxCell><mxCell id="127" value="" style="edgeStyle=orthogonalEdgeStyle;rounded=0;html=1;jettySize=auto;orthogonalLoop=1;" edge="1" parent="1" source="121" target="126"><mxGeometry relative="1" as="geometry"/></mxCell><mxCell id="130" style="edgeStyle=orthogonalEdgeStyle;rounded=0;html=1;entryX=1;entryY=0.5;jettySize=auto;orthogonalLoop=1;" edge="1" parent="1" source="121" target="99"><mxGeometry relative="1" as="geometry"><Array as="points"><mxPoint x="838" y="1623"/><mxPoint x="838" y="1517"/></Array></mxGeometry></mxCell><mxCell id="131" style="edgeStyle=orthogonalEdgeStyle;rounded=0;html=1;entryX=1;entryY=0.5;jettySize=auto;orthogonalLoop=1;" edge="1" parent="1" source="121" target="97"><mxGeometry relative="1" as="geometry"><Array as="points"><mxPoint x="695" y="1623"/><mxPoint x="695" y="1517"/></Array></mxGeometry></mxCell><mxCell id="133" style="edgeStyle=orthogonalEdgeStyle;rounded=0;html=1;entryX=1;entryY=0.5;jettySize=auto;orthogonalLoop=1;exitX=1;exitY=0.5;" edge="1" parent="1" source="121" target="101"><mxGeometry relative="1" as="geometry"><Array as="points"><mxPoint x="1029" y="1623"/><mxPoint x="1029" y="1530"/></Array></mxGeometry></mxCell><mxCell id="121" value="&lt;pre&gt;机器提示用户回复&lt;/pre&gt;&lt;pre&gt;科室名称或疾病名称&lt;/pre&gt;" style="rounded=0;whiteSpace=wrap;html=1;strokeColor=#007FFF;fillColor=#007FFF;fontStyle=1;fontSize=12;" vertex="1" parent="1"><mxGeometry x="865" y="1591" width="132" height="64" as="geometry"/></mxCell><mxCell id="136" value="" style="edgeStyle=orthogonalEdgeStyle;rounded=0;html=1;jettySize=auto;orthogonalLoop=1;" edge="1" parent="1" source="126" target="135"><mxGeometry relative="1" as="geometry"/></mxCell><mxCell id="126" value="&lt;pre&gt;用户回复不知道&lt;/pre&gt;" style="rounded=0;whiteSpace=wrap;html=1;strokeColor=#00FF00;fontStyle=1;fillColor=#00FF00;" vertex="1" parent="1"><mxGeometry x="872" y="1684" width="118" height="38" as="geometry"/></mxCell><mxCell id="137" style="edgeStyle=orthogonalEdgeStyle;rounded=0;html=1;entryX=1;entryY=0.5;jettySize=auto;orthogonalLoop=1;" edge="1" parent="1" source="135" target="74"><mxGeometry relative="1" as="geometry"><Array as="points"><mxPoint x="526" y="1786"/><mxPoint x="526" y="1423"/></Array></mxGeometry></mxCell><mxCell id="135" value="&lt;pre&gt;机器提示用户可以回复&lt;/pre&gt;&lt;pre&gt;症状进行初步诊断&lt;/pre&gt;" style="rounded=0;whiteSpace=wrap;html=1;strokeColor=#007FFF;fillColor=#007FFF;fontStyle=1;fontSize=12;" vertex="1" parent="1"><mxGeometry x="853" y="1755" width="156" height="61" as="geometry"/></mxCell><mxCell id="148" value="&lt;pre&gt;&lt;br&gt;&lt;/pre&gt;" style="rounded=0;whiteSpace=wrap;html=1;strokeColor=#00FF00;fontStyle=1;fillColor=#00FF00;" vertex="1" parent="1"><mxGeometry x="880" y="1285" width="72" height="26" as="geometry"/></mxCell><mxCell id="149" value="&lt;b&gt;用户回复&lt;/b&gt;" style="text;html=1;resizable=0;points=[];autosize=1;align=left;verticalAlign=top;spacingTop=-4;fontSize=12;" vertex="1" parent="1"><mxGeometry x="958" y="1291" width="58" height="14" as="geometry"/></mxCell><mxCell id="150" value="&lt;pre&gt;&lt;br&gt;&lt;/pre&gt;" style="rounded=0;whiteSpace=wrap;html=1;strokeColor=#007FFF;fontStyle=1;fillColor=#007FFF;" vertex="1" parent="1"><mxGeometry x="880" y="1321" width="72" height="26" as="geometry"/></mxCell><mxCell id="151" value="&lt;b&gt;机器回复&lt;/b&gt;" style="text;html=1;resizable=0;points=[];autosize=1;align=left;verticalAlign=top;spacingTop=-4;fontSize=12;" vertex="1" parent="1"><mxGeometry x="958" y="1327" width="58" height="14" as="geometry"/></mxCell><mxCell id="152" value="&lt;pre&gt;&lt;br&gt;&lt;/pre&gt;" style="rounded=0;whiteSpace=wrap;html=1;strokeColor=#FF0000;fontStyle=1;fillColor=#FF0000;" vertex="1" parent="1"><mxGeometry x="880" y="1360" width="72" height="26" as="geometry"/></mxCell><mxCell id="153" value="&lt;b&gt;后台操作&lt;/b&gt;" style="text;html=1;resizable=0;points=[];autosize=1;align=left;verticalAlign=top;spacingTop=-4;fontSize=12;" vertex="1" parent="1"><mxGeometry x="958" y="1366" width="58" height="14" as="geometry"/></mxCell><mxCell id="157" value="&lt;pre&gt;&lt;br&gt;&lt;/pre&gt;" style="rounded=1;whiteSpace=wrap;html=1;strokeColor=#FF0000;fontStyle=1;fillColor=#FFFFFF;arcSize=50;dashed=1;strokeWidth=2;" vertex="1" parent="1"><mxGeometry x="880" y="1397" width="72" height="26" as="geometry"/></mxCell><mxCell id="158" value="&lt;b&gt;机器下一步操作依据&lt;/b&gt;" style="text;html=1;resizable=0;points=[];autosize=1;align=left;verticalAlign=top;spacingTop=-4;fontSize=12;" vertex="1" parent="1"><mxGeometry x="958" y="1403" width="118" height="14" as="geometry"/></mxCell></root></mxGraphModel>